<?xml version="1.0" encoding="UTF-8" standalone="no"?>
<!-- Created with Inkscape (http://www.inkscape.org/) -->

<svg
   xmlns:dc="http://purl.org/dc/elements/1.1/"
   xmlns:cc="http://creativecommons.org/ns#"
   xmlns:rdf="http://www.w3.org/1999/02/22-rdf-syntax-ns#"
   xmlns:svg="http://www.w3.org/2000/svg"
   xmlns="http://www.w3.org/2000/svg"
   xmlns:sodipodi="http://sodipodi.sourceforge.net/DTD/sodipodi-0.dtd"
   xmlns:inkscape="http://www.inkscape.org/namespaces/inkscape"
   width="22"
   height="22"
   id="svg2"
   version="1.1"
   inkscape:version="0.48.2 r9819"
   sodipodi:docname="more-actions.svg"
   inkscape:export-filename="/Users/kevinmeyer/Desktop/wallabag/more-actions@3x.png"
   inkscape:export-xdpi="27"
   inkscape:export-ydpi="27">
  <defs
     id="defs4" />
  <sodipodi:namedview
     id="base"
     pagecolor="#ffffff"
     bordercolor="#666666"
     borderopacity="1.0"
     inkscape:pageopacity="0.0"
     inkscape:pageshadow="2"
     inkscape:zoom="13.12"
     inkscape:cx="7.6837332"
     inkscape:cy="6.5336554"
     inkscape:document-units="px"
     inkscape:current-layer="layer1"
     showgrid="false"
     inkscape:window-width="1680"
     inkscape:window-height="933"
     inkscape:window-x="1"
     inkscape:window-y="0"
     inkscape:window-maximized="0"
     fit-margin-top="0"
     fit-margin-left="0"
     fit-margin-right="0"
     fit-margin-bottom="0" />
  <metadata
     id="metadata7">
    <rdf:RDF>
      <cc:Work
         rdf:about="">
        <dc:format>image/svg+xml</dc:format>
        <dc:type
           rdf:resource="http://purl.org/dc/dcmitype/StillImage" />
        <dc:title />
      </cc:Work>
    </rdf:RDF>
  </metadata>
  <g
     inkscape:label="Layer 1"
     inkscape:groupmode="layer"
     id="layer1"
     transform="translate(-7.4313861,-946.48974)">
    <g
       id="g3007"
       transform="translate(-2.4964695e-7,4.5299621e-6)">
      <path
         transform="matrix(0.10169245,0,0,0.10169245,6.2661137,946.4945)"
         d="m 62.202198,108.12244 c 0,13.59819 -11.023512,24.6217 -24.621704,24.6217 -13.598192,0 -24.621704,-11.02351 -24.621704,-24.6217 0,-13.598195 11.023512,-24.621708 24.621704,-24.621708 13.598192,0 24.621704,11.023513 24.621704,24.621708 z"
         sodipodi:ry="24.621704"
         sodipodi:rx="24.621704"
         sodipodi:cy="108.12244"
         sodipodi:cx="37.580494"
         id="path2985"
         style="fill:#000000;fill-opacity:1;stroke:#000000;stroke-width:3;stroke-miterlimit:4;stroke-opacity:1;stroke-dasharray:none;stroke-dashoffset:0"
         sodipodi:type="arc" />
      <path
         sodipodi:type="arc"
         style="fill:#000000;fill-opacity:1;stroke:#000000;stroke-width:3;stroke-miterlimit:4;stroke-opacity:1;stroke-dasharray:none;stroke-dashoffset:0"
         id="path3755"
         sodipodi:cx="37.580494"
         sodipodi:cy="108.12244"
         sodipodi:rx="24.621704"
         sodipodi:ry="24.621704"
         d="m 62.202198,108.12244 c 0,13.59819 -11.023512,24.6217 -24.621704,24.6217 -13.598192,0 -24.621704,-11.02351 -24.621704,-24.6217 0,-13.598195 11.023512,-24.621708 24.621704,-24.621708 13.598192,0 24.621704,11.023513 24.621704,24.621708 z"
         transform="matrix(0.10169245,0,0,0.10169245,14.609734,946.4945)" />
      <path
         transform="matrix(0.10169245,0,0,0.10169245,22.953354,946.4945)"
         d="m 62.202198,108.12244 c 0,13.59819 -11.023512,24.6217 -24.621704,24.6217 -13.598192,0 -24.621704,-11.02351 -24.621704,-24.6217 0,-13.598195 11.023512,-24.621708 24.621704,-24.621708 13.598192,0 24.621704,11.023513 24.621704,24.621708 z"
         sodipodi:ry="24.621704"
         sodipodi:rx="24.621704"
         sodipodi:cy="108.12244"
         sodipodi:cx="37.580494"
         id="path3757"
         style="fill:#000000;fill-opacity:1;stroke:#000000;stroke-width:3;stroke-miterlimit:4;stroke-opacity:1;stroke-dasharray:none;stroke-dashoffset:0"
         sodipodi:type="arc" />
    </g>
  </g>
</svg>
