<?xml version="1.0" encoding="UTF-8" standalone="no"?>
<!-- Created with Inkscape (http://www.inkscape.org/) -->

<svg
   xmlns:dc="http://purl.org/dc/elements/1.1/"
   xmlns:cc="http://creativecommons.org/ns#"
   xmlns:rdf="http://www.w3.org/1999/02/22-rdf-syntax-ns#"
   xmlns:svg="http://www.w3.org/2000/svg"
   xmlns="http://www.w3.org/2000/svg"
   xmlns:sodipodi="http://sodipodi.sourceforge.net/DTD/sodipodi-0.dtd"
   xmlns:inkscape="http://www.inkscape.org/namespaces/inkscape"
   id="svg2"
   version="1.1"
   inkscape:version="0.48.2 r9819"
   width="22"
   height="22"
   xml:space="preserve"
   sodipodi:docname="settings-gear-filled-png.pdf"><metadata
     id="metadata8"><rdf:RDF><cc:Work
         rdf:about=""><dc:format>image/svg+xml</dc:format><dc:type
           rdf:resource="http://purl.org/dc/dcmitype/StillImage" /><dc:title></dc:title></cc:Work></rdf:RDF></metadata><defs
     id="defs6" /><sodipodi:namedview
     pagecolor="#ffffff"
     bordercolor="#666666"
     borderopacity="1"
     objecttolerance="10"
     gridtolerance="10"
     guidetolerance="10"
     inkscape:pageopacity="0"
     inkscape:pageshadow="2"
     inkscape:window-width="1210"
     inkscape:window-height="726"
     id="namedview4"
     showgrid="false"
     inkscape:zoom="9.1422276"
     inkscape:cx="-11.045014"
     inkscape:cy="18.561526"
     inkscape:window-x="0"
     inkscape:window-y="0"
     inkscape:window-maximized="0"
     inkscape:current-layer="g10" /><g
     id="g10"
     inkscape:groupmode="layer"
     inkscape:label="settings-gear-filled-png"
     transform="matrix(1.25,0,0,-1.25,0,21.999996)"><g
       id="g12"
       transform="matrix(0.10031395,0,0,0.10031395,8.8,8.7999968)"><g
         id="g14"><g
           id="g16"><g
             id="g18"><path
               d="m 54.7619,-14.6734 c 2.57504,9.61024 2.57479,19.73679 1.2e-4,29.34677 l 24.48835,6.56165 c 1.59758,0.42802 2.5457,2.07009 2.1177,3.66768 C 78.28102,36.42503 70.6855,49.58083 62.25676,58.00908 61.0837,59.18205 59.1865,59.1867 58.0192,58.01949 L 40.0885,40.08861 c -0.46535,0.46589 -0.94215,0.92596 -1.42375,1.37472 m 1.42372,-1.37486 C 33.0533,47.12364 24.28331,52.18669 14.6735,54.76196 l 6.56171,24.48833 c 0.42803,1.59758 -0.52005,3.23968 -2.11763,3.66777 -11.52209,3.08778 -26.71307,3.08778 -38.23516,0 -1.59758,-0.42809 -2.54566,-2.07019 -2.11763,-3.66777 l 6.56169,-24.48833 c -0.63616,-0.17007 -1.27297,-0.35295 -1.90241,-0.54564 m 1.90253,0.54558 c -9.61023,-2.57506 -18.37996,-7.63858 -25.41512,-14.67329 l -17.93069,17.93086 c -1.1673,1.16722 -3.0645,1.16257 -4.23756,-0.01041 -8.42875,-8.42825 -16.02427,-21.58404 -19.11132,-33.10638 -0.42799,-1.59758 0.52013,-3.23966 2.11771,-3.66768 l 24.48836,-6.56164 c -0.17083,-0.63595 -0.3308,-1.27892 -0.47864,-1.92036 m 0.47876,1.9204 c -2.57504,-9.61024 -2.57479,-19.73679 -1.2e-4,-29.34677 l -24.48835,-6.56165 c -1.59758,-0.42802 -2.5457,-2.07009 -2.1177,-3.66768 3.08705,-11.52233 10.68257,-24.67813 19.11131,-33.10638 1.17306,-1.17297 3.07026,-1.17762 4.23756,-0.01041 l 17.9307,17.93088 c 0.46535,-0.46589 0.94215,-0.92596 1.42375,-1.37472 m -1.42372,1.37486 c 7.03517,-7.03517 15.80516,-12.09822 25.41497,-14.67349 l -6.56171,-24.48833 c -0.42803,-1.59758 0.52005,-3.23968 2.11763,-3.66777 11.52209,-3.08778 26.71307,-3.08778 38.23516,0 1.59758,0.42809 2.54566,2.07019 2.11763,3.66777 l -6.56169,24.48833 c 0.63616,0.17007 1.27297,0.35295 1.90241,0.54564 M 14.6734,-54.7619 c 9.61023,2.57506 18.37996,7.63858 25.41512,14.67329 l 17.93069,-17.93086 c 1.1673,-1.16722 3.0645,-1.16257 4.23756,0.01041 8.42875,8.42825 16.02427,21.58404 19.11132,33.10638 0.42799,1.59758 -0.52013,3.23966 -2.11771,3.66768 l -24.48836,6.56164 c 0.17083,0.63595 0.3308,1.27892 0.47864,1.92036"
               style="fill:#000000;fill-opacity:1;fill-rule:nonzero;stroke:#000000;stroke-width:4.98137999;stroke-linecap:butt;stroke-linejoin:miter;stroke-miterlimit:10;stroke-opacity:1;stroke-dasharray:none"
               id="path20"
               inkscape:connector-curvature="0" /></g><g
             id="g22"><path
               d="m 56.69362,0 c 0,31.31142 -25.3822,56.69362 -56.69362,56.69362 -31.31142,0 -56.69362,-25.3822 -56.69362,-56.69362 0,-31.31142 25.3822,-56.69362 56.69362,-56.69362 31.31142,0 56.69362,25.3822 56.69362,56.69362 z M 19.84267,0 c 0,10.95894 -8.88373,19.84267 -19.84267,19.84267 -10.95894,0 -19.84267,-8.88373 -19.84267,-19.84267 0,-10.95894 8.88373,-19.84267 19.84267,-19.84267 10.95894,0 19.84267,8.88373 19.84267,19.84267 z"
               style="fill:#000000;fill-opacity:1;fill-rule:evenodd;stroke:#000000;stroke-width:4.98137999;stroke-linecap:butt;stroke-linejoin:miter;stroke-miterlimit:10;stroke-opacity:1;stroke-dasharray:none"
               id="path24"
               inkscape:connector-curvature="0" /></g></g></g></g></g></svg>